<svg width="44" height="44" viewBox="0 0 44 44" fill="none" xmlns="http://www.w3.org/2000/svg">
<g filter="url(#filter0_d_83_47)">
<path d="M22.45 21C23.1263 21 23.7749 21.2687 24.2531 21.7469C24.7313 22.2251 25 22.8737 25 23.55V24.4C25 27.7507 21.838 31.2 16.5 31.2C11.162 31.2 8 27.7507 8 24.4V23.55C8 22.8737 8.26866 22.2251 8.74688 21.7469C9.2251 21.2687 9.8737 21 10.55 21H22.45ZM16.5 9.95C17.7399 9.95 18.929 10.4425 19.8057 11.3193C20.6825 12.196 21.175 13.3851 21.175 14.625C21.175 15.8649 20.6825 17.054 19.8057 17.9307C18.929 18.8075 17.7399 19.3 16.5 19.3C15.2601 19.3 14.071 18.8075 13.1943 17.9307C12.3175 17.054 11.825 15.8649 11.825 14.625C11.825 13.3851 12.3175 12.196 13.1943 11.3193C14.071 10.4425 15.2601 9.95 16.5 9.95ZM31.8 4C32.6575 4.00016 33.4832 4.32431 34.1119 4.90752C34.7405 5.49073 35.1255 6.28993 35.1898 7.145L35.2 7.4V10.8C35.2003 11.6578 34.8763 12.484 34.2931 13.1129C33.7098 13.7419 32.9104 14.1272 32.055 14.1915L31.8 14.2H29.2483L27.2117 16.92C26.3107 18.1202 24.4849 17.634 24.1908 16.2808L24.1619 16.0921L24.15 15.9V14.0895L24.0174 14.0555C23.406 13.8709 22.859 13.5179 22.439 13.0368C22.019 12.5558 21.743 11.9662 21.6425 11.3355L21.6085 11.0533L21.6 10.8V7.4C21.5997 6.54222 21.9237 5.71604 22.5069 5.08707C23.0902 4.4581 23.8896 4.07283 24.745 4.0085L25 4H31.8Z" fill="white"/>
</g>
<defs>
<filter id="filter0_d_83_47" x="-3.3999" y="-3.40002" width="50" height="50" filterUnits="userSpaceOnUse" color-interpolation-filters="sRGB">
<feFlood flood-opacity="0" result="BackgroundImageFix"/>
<feColorMatrix in="SourceAlpha" type="matrix" values="0 0 0 0 0 0 0 0 0 0 0 0 0 0 0 0 0 0 127 0" result="hardAlpha"/>
<feOffset dy="4"/>
<feGaussianBlur stdDeviation="4"/>
<feComposite in2="hardAlpha" operator="out"/>
<feColorMatrix type="matrix" values="0 0 0 0 0 0 0 0 0 0 0 0 0 0 0 0 0 0 0.3 0"/>
<feBlend mode="normal" in2="BackgroundImageFix" result="effect1_dropShadow_83_47"/>
<feBlend mode="normal" in="SourceGraphic" in2="effect1_dropShadow_83_47" result="shape"/>
</filter>
</defs>
</svg>
