<svg width="21" height="21" viewBox="0 0 21 21" fill="none" xmlns="http://www.w3.org/2000/svg">
<path d="M15.75 13.7812H17.0625V17.0625H15.75V13.7812ZM13.125 10.5H14.4375V17.0625H13.125V10.5ZM7.21875 17.0625C6.34883 17.0615 5.51483 16.7154 4.89971 16.1003C4.28458 15.4852 3.93854 14.6512 3.9375 13.7812H5.25C5.25 14.1706 5.36547 14.5513 5.58179 14.875C5.79812 15.1988 6.1056 15.4511 6.46534 15.6001C6.82508 15.7491 7.22093 15.7881 7.60283 15.7122C7.98473 15.6362 8.33553 15.4487 8.61087 15.1734C8.8862 14.898 9.07371 14.5472 9.14967 14.1653C9.22564 13.7834 9.18665 13.3876 9.03764 13.0278C8.88863 12.6681 8.63629 12.3606 8.31253 12.1443C7.98877 11.928 7.60813 11.8125 7.21875 11.8125V10.5C8.08899 10.5 8.92359 10.8457 9.53894 11.4611C10.1543 12.0764 10.5 12.911 10.5 13.7812C10.5 14.6515 10.1543 15.4861 9.53894 16.1014C8.92359 16.7168 8.08899 17.0625 7.21875 17.0625Z" fill="white"/>
<path d="M18.375 1.3125H2.625C2.2769 1.3125 1.94306 1.45078 1.69692 1.69692C1.45078 1.94306 1.3125 2.2769 1.3125 2.625V18.375C1.3125 18.7231 1.45078 19.0569 1.69692 19.3031C1.94306 19.5492 2.2769 19.6875 2.625 19.6875H18.375C18.7229 19.687 19.0565 19.5485 19.3025 19.3025C19.5485 19.0565 19.687 18.7229 19.6875 18.375V2.625C19.6875 2.2769 19.5492 1.94306 19.3031 1.69692C19.0569 1.45078 18.7231 1.3125 18.375 1.3125ZM18.375 7.21875H9.1875V2.625H18.375V7.21875ZM7.875 2.625V7.21875H2.625V2.625H7.875ZM2.625 18.375V8.53125H18.375L18.3763 18.375H2.625Z" fill="white"/>
</svg>
