<svg width="24" height="24" viewBox="0 0 24 24" fill="none" xmlns="http://www.w3.org/2000/svg">
<path d="M8.13798 8.38996V12.39M6.13798 10.39H10.138M16.031 3.88696H7.96998C6.58572 3.88723 5.25825 4.43731 4.27953 5.41622C3.3008 6.39513 2.75098 7.72271 2.75098 9.10696V17.372C2.75098 19.447 5.28398 20.457 6.71298 18.953L9.68898 15.819H14.313L17.188 19.279C18.562 20.933 21.251 19.961 21.251 17.812V9.10596C21.2507 7.72188 20.7008 6.39456 19.7221 5.41587C18.7434 4.43717 17.4151 3.88723 16.031 3.88696Z" stroke="white" stroke-width="1.5" stroke-linecap="round" stroke-linejoin="round"/>
<path d="M14.6621 10.3899C15.2144 10.3899 15.6621 9.94218 15.6621 9.38989C15.6621 8.83761 15.2144 8.38989 14.6621 8.38989C14.1098 8.38989 13.6621 8.83761 13.6621 9.38989C13.6621 9.94218 14.1098 10.3899 14.6621 10.3899Z" fill="white"/>
<path d="M16.8618 12.5898C17.4141 12.5898 17.8618 12.1421 17.8618 11.5898C17.8618 11.0376 17.4141 10.5898 16.8618 10.5898C16.3095 10.5898 15.8618 11.0376 15.8618 11.5898C15.8618 12.1421 16.3095 12.5898 16.8618 12.5898Z" fill="white"/>
</svg>
