<svg width="22" height="22" viewBox="0 0 22 22" fill="none" xmlns="http://www.w3.org/2000/svg">
<path d="M12.8335 13.7499C13.0932 13.7499 13.3187 13.6546 13.51 13.4639C13.7013 13.2733 13.7966 13.0478 13.796 12.7874C13.7954 12.5271 13.7001 12.3019 13.51 12.1118C13.3199 11.9218 13.0944 11.8261 12.8335 11.8249C12.5726 11.8237 12.3474 11.9193 12.1579 12.1118C11.9685 12.3043 11.8728 12.5295 11.871 12.7874C11.8692 13.0453 11.9648 13.2708 12.1579 13.4639C12.351 13.657 12.5762 13.7524 12.8335 13.7499ZM12.146 10.8166H13.521C13.521 10.3735 13.5668 10.049 13.6585 9.84309C13.7502 9.63714 13.9641 9.36581 14.3002 9.02909C14.7585 8.57075 15.0641 8.20042 15.2168 7.91808C15.3696 7.63575 15.446 7.30331 15.446 6.92075C15.446 6.23325 15.2052 5.67195 14.7237 5.23684C14.2421 4.80172 13.6121 4.58386 12.8335 4.58325C12.2071 4.58325 11.6611 4.75895 11.1954 5.11034C10.7297 5.46172 10.4049 5.9277 10.221 6.50825L11.4585 7.01242C11.596 6.63047 11.7833 6.34417 12.0204 6.1535C12.2575 5.96284 12.5286 5.8672 12.8335 5.86659C13.2002 5.86659 13.4981 5.96986 13.7272 6.17642C13.9564 6.38297 14.071 6.66164 14.071 7.01242C14.071 7.22631 14.0099 7.42889 13.8877 7.62017C13.7654 7.81145 13.5516 8.05192 13.246 8.34159C12.7418 8.78464 12.4326 9.13236 12.3183 9.38475C12.2041 9.63714 12.1466 10.1144 12.146 10.8166ZM7.3335 16.4999C6.82933 16.4999 6.39788 16.3206 6.03916 15.9618C5.68044 15.6031 5.50077 15.1714 5.50016 14.6666V3.66659C5.50016 3.16242 5.67983 2.73097 6.03916 2.37225C6.3985 2.01353 6.82994 1.83386 7.3335 1.83325H18.3335C18.8377 1.83325 19.2694 2.01292 19.6287 2.37225C19.9881 2.73159 20.1674 3.16303 20.1668 3.66659V14.6666C20.1668 15.1708 19.9875 15.6025 19.6287 15.9618C19.27 16.3212 18.8383 16.5005 18.3335 16.4999H7.3335ZM3.66683 20.1666C3.16266 20.1666 2.73122 19.9872 2.3725 19.6285C2.01377 19.2698 1.83411 18.838 1.8335 18.3333V5.49992H3.66683V18.3333H16.5002V20.1666H3.66683Z" fill="white"/>
</svg>
