<svg width="27" height="28" viewBox="0 0 27 28" fill="none" xmlns="http://www.w3.org/2000/svg">
<path d="M25.3147 14.7497L26.3147 14.7497L25.3147 14.7497ZM20.3147 19.7497L20.3147 20.7497L20.3147 20.7497L20.3147 19.7497ZM0.292899 19.0426C-0.0976264 19.4331 -0.0976258 20.0663 0.292898 20.4568L6.65685 26.8208C7.04738 27.2113 7.68054 27.2113 8.07107 26.8208C8.46159 26.4302 8.46159 25.7971 8.07107 25.4066L2.41422 19.7497L8.07108 14.0928C8.4616 13.7023 8.4616 13.0692 8.07108 12.6786C7.68055 12.2881 7.04739 12.2881 6.65687 12.6786L0.292899 19.0426ZM25.3148 1.8387e-05L24.3148 1.57459e-05L24.3147 14.7497L25.3147 14.7497L26.3147 14.7497L26.3148 2.10282e-05L25.3148 1.8387e-05ZM20.3147 19.7497L20.3147 18.7497L1.00001 18.7497L1 19.7497L1 20.7497L20.3147 20.7497L20.3147 19.7497ZM25.3147 14.7497L24.3147 14.7497C24.3147 16.9589 22.5239 18.7497 20.3147 18.7497L20.3147 19.7497L20.3147 20.7497C23.6284 20.7497 26.3147 18.0634 26.3147 14.7497L25.3147 14.7497Z" fill="#FF0000"/>
</svg>
