<svg width="23" height="23" viewBox="0 0 23 23" fill="none" xmlns="http://www.w3.org/2000/svg">
<path d="M2.5 22.5C1.8125 22.5 1.22417 22.2554 0.735 21.7663C0.245833 21.2771 0.000833333 20.6883 0 20V2.5C0 1.8125 0.245 1.22417 0.735 0.735C1.225 0.245833 1.81333 0.000833333 2.5 0H7.5C8.1875 0 8.77625 0.245 9.26625 0.735C9.75625 1.225 10.0008 1.81333 10 2.5V20C10 20.6875 9.75542 21.2763 9.26625 21.7663C8.77708 22.2563 8.18833 22.5008 7.5 22.5H2.5ZM15 22.5C14.3125 22.5 13.7242 22.2554 13.235 21.7663C12.7458 21.2771 12.5008 20.6883 12.5 20V13.75C12.5 13.0625 12.745 12.4742 13.235 11.985C13.725 11.4958 14.3133 11.2508 15 11.25H20C20.6875 11.25 21.2763 11.495 21.7663 11.985C22.2563 12.475 22.5008 13.0633 22.5 13.75V20C22.5 20.6875 22.2554 21.2763 21.7663 21.7663C21.2771 22.2563 20.6883 22.5008 20 22.5H15ZM15 8.75C14.3125 8.75 13.7242 8.50542 13.235 8.01625C12.7458 7.52708 12.5008 6.93833 12.5 6.25V2.5C12.5 1.8125 12.745 1.22417 13.235 0.735C13.725 0.245833 14.3133 0.000833333 15 0H20C20.6875 0 21.2763 0.245 21.7663 0.735C22.2563 1.225 22.5008 1.81333 22.5 2.5V6.25C22.5 6.9375 22.2554 7.52625 21.7663 8.01625C21.2771 8.50625 20.6883 8.75083 20 8.75H15Z" fill="white"/>
</svg>
